<svg width="501" height="523" viewBox="0 0 501 523" fill="none" xmlns="http://www.w3.org/2000/svg">
<path d="M306.774 403.826C306.774 403.826 371.956 202.335 208.649 159.715C208.649 159.715 185.319 144.408 183.918 139.006C182.516 133.603 166.596 115.695 155.882 110.993C155.882 110.993 146.57 82.28 140.563 78.2782C140.563 78.2782 153.279 8.94668 137.859 1.54333C122.54 -5.65995 100.512 36.9594 100.512 36.9594C100.512 36.9594 62.4635 40.9612 57.7575 38.9603C53.0516 36.9594 15.0033 -1.05788 7.69398 4.94486C0.384682 10.9476 0.98548 23.6534 10.9982 76.9776C10.9982 76.9776 -25.0476 117.696 34.3278 176.323C34.3278 176.323 37.632 183.026 41.0363 195.031C44.3405 207.037 35.7296 214.74 48.3456 242.253C61.0618 269.765 86.3939 311.084 82.3888 319.088C82.3888 319.088 85.0923 411.129 75.6803 415.131C66.2683 419.133 48.646 436.441 69.6727 446.445C69.6727 446.445 69.7728 458.451 76.982 461.752C92.7019 469.056 109.023 467.755 116.332 461.752C123.641 455.75 128.347 454.449 135.056 439.042L151.076 441.743C149.975 444.244 147.371 451.248 150.275 458.151C150.275 458.151 152.678 463.753 159.787 467.755C171.101 474.158 207.247 470.256 253.206 457.751C253.206 457.751 274.533 472.457 309.277 453.749C344.021 435.04 428.128 434.44 450.156 457.751C472.184 481.061 384.873 494.567 384.873 494.567C384.873 494.567 354.835 517.878 394.185 521.88C433.535 525.882 531.058 485.863 491.608 445.845C452.158 405.827 373.458 389.82 306.774 403.826Z" fill="black"/>
</svg>
