<svg width="82" height="120" viewBox="0 0 82 120" fill="none" xmlns="http://www.w3.org/2000/svg">
<path d="M81.4068 74.9966C80.4036 68.4754 77.3457 62.7186 76.4011 60.924C75.4567 59.1294 74.229 55.5405 74.5737 50.497C74.9186 45.4538 72.6232 30.8897 60.9118 21.5403C49.2004 12.1901 38.3782 9.2816 36.9226 8.31773C35.3447 7.27367 28.9892 4.35099 27.4887 3.65204C25.9883 2.95289 19.9221 2.17863 17.201 1.8315C14.4799 1.48435 11.6109 2.46183 10.51 2.47056C9.40905 2.47909 3.20499 0.573059 2.26061 0.573059C1.31623 0.573059 1.88282 1.51744 1.97721 2.08424C2.07181 2.65083 4.0635 6.35668 4.0635 6.35668C4.0635 6.35668 1.88282 6.33436 1.78842 6.80655C1.69402 7.27874 4.3806 9.29825 4.3806 9.29825C4.3806 9.29825 3.11059 13.4178 3.04462 14.3478C2.97844 15.278 4.24398 18.4236 4.43298 19.2735C4.62177 20.1235 4.43298 22.1071 4.43298 22.1071L5.37126 23.0645C5.37126 23.0645 6.98293 24.1849 7.36072 24.3736C7.73852 24.5627 9.01156 24.3481 9.01156 24.3481C10.0012 24.7001 13.2164 22.9569 14.9166 21.9181C16.6166 20.8791 18.9777 20.5959 19.659 20.5906C20.3401 20.5858 20.9611 22.7683 20.9327 23.4816C20.904 24.1954 21.5279 26.8294 21.7167 27.6794C21.9057 28.5294 20.8373 30.2227 20.8373 30.2227C19.8632 29.7438 18.5055 29.285 17.6556 29.0016C16.8054 28.7182 14.161 26.8294 13.4054 26.6404C12.6498 26.4514 11.9886 26.357 10.6476 25.9875C9.30653 25.6179 4.90517 24.657 3.96017 24.7797C3.01539 24.9021 0.560644 26.2628 0.214519 27.652C-0.131403 29.0416 1.78842 30.4184 2.544 30.7017C3.29959 30.9849 5.66075 30.4184 6.49186 30.5042C7.32317 30.5901 7.85403 31.2738 7.85403 31.2738C10.8029 31.3735 12.1776 33.1573 13.8776 34.6685C15.5776 36.1796 23.6056 40.6186 24.739 40.8076C25.8724 40.9966 28.9885 40.2024 28.9885 40.2024C28.9885 40.2024 29.9335 44.0187 30.3113 46.2853C30.6891 48.552 29.0835 55.9191 28.8948 57.3357C28.7058 58.7525 28.6587 60.5468 28.3044 61.0192C28.0155 61.4045 27.7141 61.3262 26.1469 61.5629C24.2701 61.8463 22.2067 64.6106 22.2835 65.8359C22.3779 67.3471 24.0163 67.7984 24.7473 67.7984H27.3363C28.4697 67.7984 31.6808 67.3471 31.6808 67.3471L36.7811 67.7984H67.5811C70.6559 67.7984 73.706 74.067 74.2292 78.7751C74.7958 83.8752 71.2513 97.1792 69.0345 101.916C66.9567 106.355 62.371 111.349 57.9842 112.305C50.6174 113.91 45.6117 109.094 41.9281 109.755C38.5765 110.356 39.2836 114.099 40.7947 115.61C42.1892 117.005 54.2159 121.158 62.1388 118.633C70.7334 115.894 75.868 105.857 78.6671 97.7596C81.3157 90.1038 82.5435 82.3594 81.4101 74.9925L81.4068 74.9966ZM41.0465 60.897C39.2521 61.558 37.7409 62.597 36.6076 62.3138C35.4742 62.0304 35.002 62.8804 34.0574 62.597C34.0574 62.597 35.002 59.7636 35.9447 58.1461C36.8873 56.5283 38.1612 51.2597 38.1612 51.2597C38.4872 53.2396 40.3855 56.3635 41.8021 58.2525C43.2188 60.1414 42.841 60.236 41.0465 60.897Z" fill="black"/>
</svg>
